<?xml version="1.0" encoding="UTF-8" standalone="no"?>
<svg
   width="600pt"
   height="600pt"
   viewBox="0 0 600 600"
   version="1.1"
   id="svg2"
   inkscape:version="1.1.1 (3bf5ae0d25, 2021-09-20, custom)"
   sodipodi:docname="uroboros.svg"
   inkscape:export-filename="/tmp/uroboros.png"
   inkscape:export-xdpi="60"
   inkscape:export-ydpi="60"
   xmlns:inkscape="http://www.inkscape.org/namespaces/inkscape"
   xmlns:sodipodi="http://sodipodi.sourceforge.net/DTD/sodipodi-0.dtd"
   xmlns="http://www.w3.org/2000/svg"
   xmlns:svg="http://www.w3.org/2000/svg"
   xmlns:rdf="http://www.w3.org/1999/02/22-rdf-syntax-ns#"
   xmlns:cc="http://creativecommons.org/ns#"
   xmlns:dc="http://purl.org/dc/elements/1.1/">
  <metadata
     id="metadata198">
    <rdf:RDF>
      <cc:Work
         rdf:about="">
        <dc:format>image/svg+xml</dc:format>
        <dc:type
           rdf:resource="http://purl.org/dc/dcmitype/StillImage" />
      </cc:Work>
    </rdf:RDF>
  </metadata>
  <defs
     id="defs196" />
  <sodipodi:namedview
     pagecolor="#ffffff"
     bordercolor="#666666"
     borderopacity="1"
     objecttolerance="10"
     gridtolerance="10"
     guidetolerance="10"
     inkscape:pageopacity="0"
     inkscape:pageshadow="2"
     inkscape:window-width="1920"
     inkscape:window-height="1011"
     id="namedview194"
     showgrid="false"
     inkscape:zoom="0.76057052"
     inkscape:cx="349.08006"
     inkscape:cy="439.14403"
     inkscape:window-x="0"
     inkscape:window-y="32"
     inkscape:window-maximized="1"
     inkscape:current-layer="svg2"
     inkscape:pagecheckerboard="true"
     inkscape:document-units="pt"
     inkscape:snap-global="false"
     showguides="true"
     inkscape:guide-bbox="true">
    <sodipodi:guide
       position="300,300"
       orientation="-1,0"
       id="guide15546"
       inkscape:label=""
       inkscape:locked="false"
       inkscape:color="rgb(0,0,255)" />
    <sodipodi:guide
       position="300,300"
       orientation="0,1"
       id="guide15548"
       inkscape:label=""
       inkscape:locked="false"
       inkscape:color="rgb(0,0,255)" />
  </sodipodi:namedview>
  <g
     id="g1960"
     style="stroke:#000000;stroke-opacity:1">
    <path
       fill="#090909"
       opacity="1"
       d="m 281.33708,47.843798 c 6.62852,-6.262573 11.0394,-14.388584 17.19261,-21.062711 0.19731,8.995724 -1.5552,17.876076 -5.7129,25.864126 5.70028,-1.810394 11.36111,-3.781943 16.72913,-6.443451 4.11588,-2.662688 7.64324,-6.201331 12.0025,-8.508422 -2.45012,7.252517 -6.19439,13.954759 -9.62893,20.773755 11.31772,2.218841 22.48138,5.154312 33.57702,8.292252 3.53739,1.085438 7.27072,0.579756 10.90552,0.738877 -7.3525,7.03503 -17.38097,9.708218 -26.13956,14.431414 -11.05887,5.627074 -23.38798,7.870609 -35.51389,9.866962 -8.31808,1.47872 -16.76763,-0.08747 -25.12886,0.58064 12.66289,5.410316 27.98374,5.790571 38.40578,15.59459 4.28869,5.69739 6.09869,13.80323 2.88971,20.44263 -5.51779,9.72195 -16.37538,14.44373 -26.5335,17.7574 -6.96541,2.185 -13.81112,5.02492 -21.09735,5.90162 9.32628,-6.05887 19.7438,-10.69855 27.68386,-18.6778 4.16623,-4.20219 5.26624,-11.77305 0.72845,-16.10631 -3.07254,-2.1356 -7.09308,-3.23775 -10.78036,-2.42542 -7.56477,1.49606 -13.94676,6.00657 -20.82102,9.21011 -0.62916,-2.76724 1.00776,-6.62547 -1.23459,-9.0345 -2.01938,-2.21974 -5.18531,-0.68921 -7.6971,-0.43181 1.79704,1.76028 4.69156,2.99489 5.70053,5.53268 1.33834,3.89286 -1.13476,8.36569 -4.65628,10.13959 -4.37683,0.92503 -8.98908,-1.17085 -13.30843,0.36046 -9.61007,3.72194 -17.04144,11.90327 -27.25619,14.25044 -6.02929,1.78885 -13.32142,0.73624 -17.68845,-4.03998 -2.15661,-2.78811 1.6356,-4.78651 2.73717,-7.06827 0.56898,-2.63283 0.26882,-5.37852 0.34259,-8.05754 -6.82045,8.36807 -15.59889,14.92526 -22.19813,23.49127 -4.2287,5.00043 -7.22116,10.88179 -11.3461,15.94827 3.46717,-8.93871 8.17142,-17.35673 13.1418,-25.53166 4.95966,-8.03295 13.11539,-13.42777 21.36021,-17.66032 2.25482,5.24065 5.49346,10.42816 11.30129,12.27051 -1.20859,-4.57838 -2.81858,-10.06691 1.42758,-13.64026 1.54865,3.56603 4.62747,5.9822 7.48445,8.4706 8.12922,-7.40038 14.73024,-16.73187 18.00376,-27.29551 1.08719,-3.546051 0.0729,-8.283306 -3.87454,-9.523833 -10.46627,-3.443016 -21.68879,-5.642585 -30.80204,-12.253486 -0.77002,0.465812 -1.54871,0.929871 -2.32564,1.385275 -0.32406,3.069829 -0.54076,6.143372 -0.75056,9.227322 -2.80318,-5.513822 -4.71012,-11.404837 -6.3,-17.348802 -2.33652,3.085933 -2.95324,6.889389 -2.92566,10.670097 -3.17363,-4.84099 -4.89429,-10.405983 -3.92128,-16.236616 -1.26199,-0.976237 -2.53438,-1.945571 -3.79812,-2.913153 -2.45994,13.710589 2.06638,27.447809 7.20334,39.993196 -8.47555,-9.004573 -14.17629,-20.411712 -16.69752,-32.481689 -0.65729,-8.548242 0.0901,-17.136515 -0.21391,-25.694327 16.55692,-5.370101 33.7441,-12.919145 51.51832,-10.015066 -0.12572,0.443063 -0.39799,1.342996 -0.52371,1.786059 -4.61833,0.515748 -11.51593,-0.393924 -13.10871,5.338283 -1.84239,4.339215 3.46895,7.432535 7.33161,6.421451 4.42454,-1.338831 8.60985,-3.320738 12.80021,-5.238553 -0.9326,2.604277 -1.85829,5.218961 -2.57111,7.894754 10.84611,-0.525517 21.76763,-0.711415 32.4195,1.859177 7.90857,2.591924 15.74722,-1.99313 21.6675,-6.804321 M 242.7072,63.089591 c -3.60721,0.639329 -7.09955,1.779432 -10.67596,2.578163 4.54581,1.622927 8.77445,4.100653 13.39528,5.486489 4.16104,-0.482174 8.01097,-2.721175 11.96803,-4.109585 -4.63328,-1.992015 -9.41729,-4.708297 -14.68735,-3.955067 M 182.4771,51.735804 c 0.98439,1.190342 1.98784,2.375533 3.01386,3.538263 0.0604,-0.654502 0.17606,-1.982567 0.23647,-2.637069 -1.08345,-0.300398 -2.16689,-0.600796 -3.25033,-0.901194 z"
       id="path20982"
       style="mix-blend-mode:normal;fill:#ffffff;fill-opacity:1;stroke-width:1.08318;stroke:#000000;stroke-opacity:1" />
    <path
       fill="#090909"
       opacity="1"
       d="m 349.40429,74.650113 c 5.42792,-3.847692 11.9904,1.165703 17.37485,2.607002 14.29441,5.362153 27.97787,14.276657 43.65968,14.342553 -12.9241,6.384754 -27.48945,8.058506 -41.67229,9.088892 -16.13646,1.06742 -31.79805,-5.463453 -44.55713,-14.938662 8.84703,-2.533923 17.4539,-6.06249 25.19489,-11.099785 z"
       id="path20984"
       style="mix-blend-mode:normal;fill:#ffffff;fill-opacity:1;stroke-width:1.08318;stroke:#000000;stroke-opacity:1" />
    <path
       fill="#090909"
       opacity="1"
       d="m 138.34555,139.27453 c 0.92147,-0.79975 1.82902,-1.61247 2.71554,-2.44496 3.06408,-3.1639 5.75311,-6.656 8.62534,-9.98488 -1.42841,8.03596 1.42014,15.64023 2.9539,23.37481 l -11.22494,-8.22765 c 0.43686,-1.41057 0.84019,-2.83054 1.22649,-4.24765 -0.99891,0.9362 -1.99319,1.87771 -2.98136,2.82568 z"
       id="path20986"
       style="mix-blend-mode:normal;fill:#ffffff;fill-opacity:1;stroke-width:1.08318;stroke:#000000;stroke-opacity:1"
       sodipodi:nodetypes="cccccccc" />
    <path
       fill="#090909"
       opacity="1"
       d="m 322.92004,86.867413 c 13.5854,10.86781 31.01911,15.721167 48.27858,15.070277 -11.74093,4.0114 -24.61716,3.21599 -36.66781,1.14611 -9.69324,-1.47556 -18.76907,-5.556129 -27.15184,-10.523532 5.20673,-1.820201 10.49094,-3.444522 15.54107,-5.692855 z"
       id="path20988"
       style="mix-blend-mode:normal;fill:#ffffff;fill-opacity:1;stroke-width:1.08318;stroke:#000000;stroke-opacity:1" />
    <path
       fill="#090909"
       opacity="1"
       d="m 372.68109,103.42707 c 6.29209,8.08508 14.19225,15.03607 23.49414,19.46873 6.39275,2.78064 13.17245,4.49535 19.8493,6.49558 -22.03717,0.44062 -43.3048,-9.06303 -60.07502,-22.93609 5.63007,-0.66233 11.28622,-1.36444 16.73158,-3.02822 z"
       id="path20990"
       style="mix-blend-mode:normal;fill:#ffffff;fill-opacity:1;stroke-width:1.08318;stroke:#000000;stroke-opacity:1" />
    <path
       fill="#090909"
       opacity="1"
       d="m 292.25656,95.472735 c 4.67345,-0.387463 9.45905,-2.085681 14.15172,-1.054709 6.07705,2.248223 11.59693,5.780184 17.61988,8.206664 -6.1066,0.0343 -12.24927,-0.0648 -18.29474,-1.00024 -4.69316,-1.56266 -8.92993,-4.267276 -13.47686,-6.151715 z"
       id="path20992"
       style="mix-blend-mode:normal;fill:#ffffff;fill-opacity:1;stroke-width:1.08318;stroke:#000000;stroke-opacity:1" />
    <path
       fill="#090909"
       opacity="1"
       d="m 340.17976,107.71407 c 5.48641,0.0474 11.4799,-0.49634 16.47317,2.34339 3.97444,2.30915 7.72815,4.95203 11.5166,7.55689 -9.71445,-2.03847 -19.46565,-4.65199 -27.98977,-9.90028 z"
       id="path20994"
       style="mix-blend-mode:normal;fill:#ffffff;fill-opacity:1;stroke-width:1.08318;stroke:#000000;stroke-opacity:1" />
    <path
       fill="#090909"
       opacity="1"
       d="m 308.84155,105.58723 c 4.45908,0.93864 9.16713,1.31501 13.17948,3.70391 3.81805,1.79096 6.92631,4.95189 11.00362,6.2187 3.00443,-0.59917 5.65746,-2.75609 8.86927,-2.4213 8.72056,1.20659 17.87043,3.98671 24.46326,10.09644 1.70533,1.7237 3.49471,4.54559 1.89247,6.89719 -3.40321,6.75326 -10.44966,10.27333 -17.34573,12.42732 -12.55762,4.44073 -26.14626,3.15874 -39.17262,2.12571 5.0477,-3.43812 11.437,-2.15382 16.97305,-4.08756 5.11902,-1.34241 9.4339,-4.67659 13.09501,-8.38638 2.0037,-2.95509 2.1856,-6.7024 2.96593,-10.11235 -13.65729,11.11968 -30.0813,19.66112 -47.60874,22.34805 8.68271,-6.35132 17.08801,-14.80402 18.02886,-26.17321 -1.04217,-4.6438 -4.10198,-8.53373 -6.34386,-12.63652 m 26.1544,11.22262 c 2.41867,1.80502 5.10495,3.22273 7.94456,4.239 -2.48472,-1.70126 -5.13978,-3.13968 -7.94456,-4.239 z"
       id="path20996"
       style="mix-blend-mode:normal;fill:#ffffff;fill-opacity:1;stroke-width:1.08318;stroke:#000000;stroke-opacity:1" />
    <path
       fill="#090909"
       opacity="1"
       d="m 210.07007,87.053629 c 8.66104,2.969486 18.24228,4.197131 25.80288,9.709889 -3.00086,4.275902 -8.12566,5.869422 -12.59733,8.108712 -17.36483,7.98159 -33.65773,18.23441 -48.29445,30.49831 1.24163,-8.89367 3.69029,-18.49805 11.44788,-23.97347 8.9231,-6.20355 18.71137,-11.34 26.37405,-19.195205 -1.66672,-1.202319 -3.33869,-2.378673 -5.02457,-3.530813 0.75807,-0.540309 1.52481,-1.078866 2.29154,-1.617423 z"
       id="path20998"
       style="mix-blend-mode:normal;fill:#ffffff;fill-opacity:1;stroke-width:1.08318;stroke:#000000;stroke-opacity:1" />
    <path
       fill="#090909"
       opacity="1"
       d="m 368.56298,121.94664 c 6.20089,2.61566 13.23138,4.47124 17.93184,9.60326 4.06051,4.02042 8.44483,9.55697 6.66399,15.72863 -4.04161,5.72305 -10.65483,10.61923 -17.98315,10.23504 -10.90366,-0.79256 -21.95268,-2.38038 -31.89103,-7.18514 7.4467,-2.11461 15.36921,-3.28598 21.86557,-7.82739 4.15874,-2.47381 7.51786,-6.65017 7.77894,-11.67888 -0.49622,-3.33498 -2.83676,-5.97111 -4.36616,-8.87552 z"
       id="path21000"
       style="mix-blend-mode:normal;fill:#ffffff;fill-opacity:1;stroke-width:1.08318;stroke:#000000;stroke-opacity:1" />
    <path
       fill="#090909"
       opacity="1"
       d="m 410.0757,131.58394 c 5.358,0.90436 11.77222,-0.33806 16.24531,3.5136 5.7246,4.123 8.13803,11.16169 12.14306,16.70255 3.94287,6.20402 10.34702,10.04111 16.07459,14.37194 -19.0645,-5.12039 -31.00386,-21.53844 -44.46296,-34.58809 z"
       id="path21002"
       style="mix-blend-mode:normal;fill:#ffffff;fill-opacity:1;stroke-width:1.08318;stroke:#000000;stroke-opacity:1" />
    <path
       fill="#090909"
       opacity="1"
       d="m 395.16682,130.54827 c 4.10979,0.70576 8.24523,1.55186 12.11923,3.11088 4.61155,4.63651 9.33047,9.27673 13.26863,14.52475 -8.65497,-5.58111 -19.97876,-8.17058 -25.38786,-17.63563 z"
       id="path21004"
       style="mix-blend-mode:normal;fill:#ffffff;fill-opacity:1;stroke-width:1.08318;stroke:#000000;stroke-opacity:1" />
    <path
       fill="#090909"
       opacity="1"
       d="m 199.08497,121.29288 c 10.48917,-8.64356 22.81667,-14.66255 35.20164,-20.07525 -1.25967,3.24084 -2.60592,7.22098 -6.12156,8.69874 -9.46068,4.27475 -18.35273,9.79082 -25.98416,16.8685 -1.08689,-1.79673 -2.11134,-3.63488 -3.09592,-5.49199 z"
       id="path21006"
       style="mix-blend-mode:normal;fill:#ffffff;fill-opacity:1;stroke-width:1.08318;stroke:#000000;stroke-opacity:1" />
    <path
       fill="#090909"
       opacity="1"
       d="m 393.5372,134.99362 c 7.70917,5.66897 17.74547,11.54771 19.24184,21.95965 0.57814,6.09055 -5.26485,10.43086 -10.77445,10.6761 -10.18047,0.26382 -20.39279,-2.16374 -29.34217,-7.00257 6.94191,-1.75728 14.68838,-1.70291 20.6546,-6.16242 3.27931,-2.6248 5.352,-6.94443 4.83706,-11.16616 -1.29561,-2.90215 -3.03863,-5.55247 -4.61688,-8.3046 z"
       id="path21008"
       style="mix-blend-mode:normal;fill:#ffffff;fill-opacity:1;stroke-width:1.08318;stroke:#000000;stroke-opacity:1" />
    <path
       fill="#090909"
       opacity="1"
       d="m 273.05877,120.12092 c 3.51536,-2.09949 7.51397,-4.22731 11.78138,-2.78688 4.2189,0.70082 6.54299,5.19866 6.66371,9.14238 0.34226,4.00658 -2.77737,7.22232 -5.49006,9.71854 -8.60453,6.98883 -19.19697,10.89032 -28.02416,17.55477 -3.8853,3.30401 -6.7857,7.57322 -10.04197,11.46406 0.83182,-5.44475 3.3169,-10.59991 7.35225,-14.3781 8.74356,-7.94275 20.64498,-10.96662 29.78728,-18.34213 3.41215,-3.14751 5.03842,-9.13422 1.65435,-12.84653 -4.52995,-1.74585 -9.14914,-0.11306 -13.68278,0.47389 z"
       id="path21010"
       style="mix-blend-mode:normal;fill:#ffffff;fill-opacity:1;stroke-width:1.08318;stroke:#000000;stroke-opacity:1" />
    <path
       fill="#090909"
       opacity="1"
       d="m 279.2524,121.39265 c 4.876,-2.58991 9.23111,4.33725 5.94115,7.81583 -1.82408,2.42382 -5.41024,2.20247 -7.96296,2.92911 -0.15278,-3.56279 -2.70598,-9.33234 2.02181,-10.74494 z"
       id="path21012"
       style="mix-blend-mode:normal;fill:#ffffff;fill-opacity:1;stroke-width:1.08318;stroke:#000000;stroke-opacity:1" />
    <path
       fill="#090909"
       opacity="1"
       d="m 267.83134,133.08211 c -2.47928,-4.04272 1.75956,-7.44636 4.6673,-9.65984 0.0171,2.319 -0.55855,4.85137 0.49114,7.00997 1.57529,1.78747 4.17052,2.14161 6.29516,3.04019 -3.21852,2.54701 -9.60382,4.75933 -11.4536,-0.39032 z"
       id="path21014"
       style="mix-blend-mode:normal;fill:#ffffff;fill-opacity:1;stroke-width:1.08318;stroke:#000000;stroke-opacity:1" />
    <path
       fill="#090909"
       opacity="1"
       d="m 415.79804,152.32064 c 5.6751,5.30229 11.52915,11.1003 14.22737,18.55702 1.04382,4.68017 2.26921,11.71263 -2.51263,14.77209 -5.16555,2.72952 -11.45809,1.54589 -16.83782,0.30377 -8.24227,-3.56947 -15.23429,-9.30951 -22.56904,-14.38012 1.08761,-0.7439 2.19077,-1.47564 3.28528,-2.20914 -8.08782,-0.72713 -16.62583,-0.74351 -23.78339,3.63703 1.39266,-2.33996 2.39246,-5.54331 5.39195,-6.25159 11.20451,-4.21008 20.96708,6.18125 32.1253,5.49366 6.08712,0.15097 10.8173,-4.52271 14.94467,-8.3994 -1.29506,-3.88411 -2.80156,-7.70289 -4.27169,-11.52332 z"
       id="path21016"
       style="mix-blend-mode:normal;fill:#ffffff;fill-opacity:1;stroke-width:1.08318;stroke:#000000;stroke-opacity:1" />
    <path
       fill="#090909"
       opacity="1"
       d="m 335.04576,146.78668 c 7.65897,0.44211 15.0179,-1.9065 22.31179,-3.84481 -6.06067,3.36823 -12.61837,5.98714 -19.49966,6.99986 -10.37641,1.85495 -21.92869,0.70585 -30.91299,7.1673 2.27049,-3.73899 5.26298,-7.39491 9.54925,-8.85183 5.89248,-2.53733 12.36998,-1.19913 18.55161,-1.47052 z"
       id="path21018"
       style="mix-blend-mode:normal;fill:#ffffff;fill-opacity:1;stroke-width:1.08318;stroke:#000000;stroke-opacity:1" />
    <path
       fill="#090909"
       opacity="1"
       d="m 249.35907,134.69483 c 3.11766,-3.11703 6.42017,-6.03445 9.37194,-9.31119 -0.10107,2.50229 -0.24366,4.98718 -0.34473,7.48948 -3.00114,0.67191 -6.00557,1.27107 -9.02721,1.82171 z"
       id="path21020"
       style="mix-blend-mode:normal;fill:#ffffff;fill-opacity:1;stroke-width:1.08318;stroke:#000000;stroke-opacity:1" />
    <path
       fill="#090909"
       opacity="1"
       d="m 437.17429,164.26992 c 3.87076,2.95489 8.01385,5.72164 11.22998,9.41797 2.2162,4.71927 3.66443,9.7606 5.0729,14.77587 -7.30677,-6.67771 -13.42607,-14.59266 -16.30288,-24.19384 z"
       id="path21022"
       style="mix-blend-mode:normal;fill:#ffffff;fill-opacity:1;stroke-width:1.08318;stroke:#000000;stroke-opacity:1" />
    <path
       fill="#090909"
       opacity="1"
       d="m 155.84196,127.36989 c 7.35023,-6.80123 16.95812,-10.3344 26.17107,-13.83038 -2.31879,2.90932 -4.8382,5.69695 -6.6383,8.98156 -2.34396,6.28293 -1.92062,13.40531 -5.57449,19.21585 -2.99984,4.58245 -7.47391,7.85738 -11.63321,11.31316 -3.568,-3.56034 -4.35792,-8.69366 -5.15218,-13.44946 -0.72452,-4.21009 -0.29766,-9.03406 2.82711,-12.23073 z"
       id="path21024"
       style="mix-blend-mode:normal;fill:#ffffff;fill-opacity:1;stroke-width:1.08318;stroke:#000000;stroke-opacity:1" />
    <path
       fill="#090909"
       opacity="1"
       d="m 434.5114,168.43404 c 6.47812,7.03255 11.59781,15.83536 12.90214,25.41556 1.36262,7.60082 -7.04524,15.66558 -14.56644,11.82762 -9.63827,-2.77086 -17.01323,-9.91286 -23.19921,-17.45389 5.4372,1.8484 10.94406,3.53072 16.62744,4.51896 3.96451,0.6223 8.64759,-0.92549 10.22938,-4.91201 2.77384,-6.44818 -0.35563,-13.15428 -1.99331,-19.39624 z"
       id="path21026"
       style="mix-blend-mode:normal;fill:#ffffff;fill-opacity:1;stroke-width:1.08318;stroke:#000000;stroke-opacity:1" />
    <path
       fill="#090909"
       opacity="1"
       d="m 241.59506,132.50157 c 3.51747,-0.77463 5.85646,1.7801 8.25937,3.66302 -1.32705,3.17314 -2.72335,6.33227 -4.20959,9.44616 -0.38383,-2.51036 -0.76437,-4.94796 -1.28339,-7.4136 -9.86185,2.51771 -18.12511,9.46749 -28.2775,11.06144 -3.75877,0.27529 -7.53391,0.14182 -11.26132,-0.40545 6.65196,-2.19439 13.98414,-2.71941 19.79744,-6.95761 5.65633,-3.0176 10.28495,-8.70292 16.97499,-9.39396 z"
       id="path21028"
       style="mix-blend-mode:normal;fill:#ffffff;fill-opacity:1;stroke-width:1.08318;stroke:#000000;stroke-opacity:1" />
    <path
       fill="#090909"
       opacity="1"
       d="m 351.77771,156.2642 c 6.70003,-0.51784 13.24572,1.28465 19.63562,3.05561 -10.60894,1.31233 -21.4186,-0.43426 -31.88179,2.25004 3.94636,-2.00325 7.73696,-4.79485 12.24617,-5.30565 z"
       id="path21030"
       style="mix-blend-mode:normal;fill:#ffffff;fill-opacity:1;stroke-width:1.08318;stroke:#000000;stroke-opacity:1" />
    <path
       fill="#090909"
       opacity="1"
       d="m 270.45721,152.29105 c 8.33783,-3.26768 16.96125,-5.72073 25.49689,-8.40778 -8.51015,7.36832 -19.33783,11.14111 -29.02122,16.60512 -3.95719,2.19026 -6.1022,6.33307 -8.98649,9.63248 2.4769,-6.85066 5.41142,-14.6268 12.51082,-17.82982 z"
       id="path21032"
       style="mix-blend-mode:normal;fill:#ffffff;fill-opacity:1;stroke-width:1.08318;stroke:#000000;stroke-opacity:1" />
    <path
       fill="#090909"
       opacity="1"
       d="m 451.45547,193.19916 c 4.3675,6.06472 7.78557,13.03646 8.89575,20.46005 -0.52936,4.21757 -0.12956,9.54223 -3.65412,12.62194 -2.48034,2.37207 -6.35923,2.17255 -9.4174,1.30125 -9.75818,-3.33573 -17.78961,-10.43943 -24.05069,-18.45516 7.50775,2.16842 15.43998,5.75621 23.22798,2.84575 7.37216,-3.57127 5.8647,-12.1925 4.99848,-18.77383 z"
       id="path21034"
       style="mix-blend-mode:normal;fill:#ffffff;fill-opacity:1;stroke-width:1.08318;stroke:#000000;stroke-opacity:1" />
    <path
       fill="#090909"
       opacity="1"
       d="m 160.8308,152.9766 c 4.70379,-4.49882 8.93063,-9.44557 13.3994,-14.16315 -3.28927,8.05465 -7.58254,15.97765 -13.36091,22.56044 l -3.77747,-4.01902 c 1.05419,-1.60747 2.31893,-3.08275 3.73898,-4.37827 z"
       id="path21036"
       style="mix-blend-mode:normal;fill:#ffffff;fill-opacity:1;stroke-width:1.08318;stroke:#000000;stroke-opacity:1"
       sodipodi:nodetypes="ccccc" />
    <path
       fill="#090909"
       opacity="1"
       d="m 461.73765,201.33508 c 3.31258,3.17526 7.10772,5.88059 10.19289,9.28913 1.85658,5.20508 3.12386,10.60622 4.35828,15.9917 -3.05426,-3.29416 -6.01136,-6.66777 -8.95805,-10.04827 -4.4767,-3.78932 -4.24742,-10.04079 -5.59312,-15.23256 z"
       id="path21038"
       style="mix-blend-mode:normal;fill:#ffffff;fill-opacity:1;stroke-width:1.08318;stroke:#000000;stroke-opacity:1" />
    <path
       fill="#090909"
       opacity="1"
       d="m 473.55938,208.00769 c 5.30363,2.68632 11.66942,4.39834 15.6176,9.06275 2.40211,6.69401 1.43347,14.37255 4.73831,20.87989 2.04872,5.99179 6.93663,10.19771 10.52375,15.22151 -7.99663,-3.44767 -13.51843,-10.62 -17.85364,-17.91254 -5.36101,-8.54532 -9.71954,-17.72564 -13.02602,-27.25161 z"
       id="path21040"
       style="mix-blend-mode:normal;fill:#ffffff;fill-opacity:1;stroke-width:1.08318;stroke:#000000;stroke-opacity:1" />
    <path
       fill="#090909"
       opacity="1"
       d="m 462.88194,214.19851 c 5.86506,9.26001 8.44515,20.59409 6.55822,31.4294 -1.4055,4.13933 -6.52126,6.31131 -10.55702,4.3051 -11.66602,-4.37062 -19.12122,-14.98865 -25.98419,-24.83809 6.02332,3.76001 11.93244,8.2177 19.03848,9.61104 5.00477,0.8689 10.93449,-2.78712 10.65999,-8.37473 0.48217,-4.02891 0.17814,-8.09082 0.28452,-12.13272 z"
       id="path21042"
       style="mix-blend-mode:normal;fill:#ffffff;fill-opacity:1;stroke-width:1.08318;stroke:#000000;stroke-opacity:1" />
    <path
       fill="#090909"
       opacity="1"
       d="m 472.88978,240.51482 c 4.49649,9.43349 7.33428,20.91884 2.46214,30.78949 -2.86591,5.07807 -9.99415,5.04071 -14.40174,2.06726 -8.40551,-5.61171 -13.67171,-14.71447 -17.39119,-23.89156 6.74549,4.50985 14.56331,11.86763 23.35192,9.13268 6.6453,-3.05168 4.91725,-12.14101 5.97887,-18.09787 z"
       id="path21046"
       style="mix-blend-mode:normal;fill:#ffffff;fill-opacity:1;stroke-width:1.08318;stroke:#000000;stroke-opacity:1" />
    <path
       fill="#090909"
       opacity="1"
       d="m 482.66601,243.53886 c 2.64569,3.9773 6.35436,7.37689 8.41034,11.73037 -0.0115,8.69216 0.34064,17.36785 0.73609,26.0523 -2.07685,-5.80828 -4.04437,-11.71156 -7.17182,-17.04775 -1.30623,-2.80518 -3.42173,-5.39577 -3.80925,-8.55557 0.35244,-4.10022 1.06325,-8.14592 1.83464,-12.17935 z"
       id="path21048"
       style="mix-blend-mode:normal;fill:#ffffff;fill-opacity:1;stroke-width:1.08318;stroke:#000000;stroke-opacity:1" />
    <path
       fill="#090909"
       opacity="1"
       d="m 493.40678,249.58722 c 4.54548,2.51484 8.93092,5.33064 13.2973,8.15159 -1.14498,6.05711 -2.55487,12.08762 -3.21166,18.22553 -0.46496,7.0597 1.49181,13.86179 2.62921,20.75029 -5.46012,-9.12399 -8.2521,-19.45581 -11.12075,-29.58692 -1.62162,-5.69811 -1.72033,-11.66459 -1.5941,-17.54049 z"
       id="path21050"
       style="mix-blend-mode:normal;fill:#ffffff;fill-opacity:1;stroke-width:1.08318;stroke:#000000;stroke-opacity:1" />
    <path
       fill="#090909"
       opacity="1"
       d="m 480.05561,263.86825 c 3.2192,9.82365 3.04199,20.49148 0.0386,30.34396 -1.17342,3.39344 -4.34001,5.95096 -7.91548,6.34444 -3.5222,0.57545 -6.66161,-1.85298 -9.14879,-3.98722 -6.42796,-6.25655 -9.70017,-14.88361 -11.02555,-23.60313 4.52139,4.68133 9.80911,11.22965 17.24096,9.54451 9.42038,-1.09342 9.35472,-11.58516 10.8103,-18.64256 z"
       id="path21054"
       style="mix-blend-mode:normal;fill:#ffffff;fill-opacity:1;stroke-width:1.08318;stroke:#000000;stroke-opacity:1" />
    <path
       fill="#090909"
       opacity="1"
       d="m 393.72859,99.596641 c 3.23834,-0.641917 6.21767,-2.363385 9.51425,-2.714215 9.23098,2.156839 17.6438,6.842014 25.63691,11.820644 6.24362,3.60639 10.6949,9.39074 16.20203,13.92022 5.84924,4.88704 11.68286,9.80696 17.65019,14.55573 5.49045,4.25581 12.19345,6.92806 16.97005,12.08451 4.96443,6.3207 6.47108,14.54533 10.72614,21.29907 2.16898,4.1511 5.77091,7.27682 8.23999,11.23639 3.24225,5.12517 8.71251,8.41284 11.84728,13.57933 2.29818,5.96119 1.67486,12.60142 3.71477,18.63648 1.94124,6.0331 6.01862,10.99396 10.14345,15.67611 -1.83277,-0.5602 -3.66025,-1.14635 -5.49474,-1.69788 3.34402,6.04676 8.16414,11.12192 11.79441,16.95633 2.00292,7.0637 0.34877,14.61249 0.95887,21.83574 -0.17618,5.00985 3.85417,8.6007 6.31109,12.57583 -2.3715,-1.23686 -4.67695,-2.57748 -6.98415,-3.90945 1.78929,5.09236 6.17322,10.05219 4.77436,15.80563 -1.06971,7.19858 -3.6178,14.13394 -4.20797,21.41156 0.31741,7.2451 2.80044,14.16272 4.13135,21.25257 -1.47999,-1.81323 -2.95137,-3.62472 -4.40714,-5.42404 l -2.83573,-5.66457 c -6.12273,-10.16811 -14.9758,-18.42019 -20.88868,-28.73503 -4.94195,-11.50583 -3.26462,-24.55493 1.36503,-35.89823 4.83509,3.08702 9.34698,6.65822 14.02391,9.99252 -7.42584,-9.11644 -17.13949,-15.96601 -24.80306,-24.84226 -6.55355,-8.12899 -5.24332,-18.96391 -7.01854,-28.62141 9.65249,1.14296 17.99002,6.20032 25.42145,12.12841 -1.6414,-3.15233 -4.32012,-5.58662 -7.41789,-7.28584 -7.79886,-4.33565 -16.12495,-7.62476 -24.06303,-11.67324 -4.90576,-2.47063 -9.06068,-6.11373 -13.62406,-9.11872 4.08326,4.66473 9.46703,7.88984 13.97912,12.08275 -11.97458,-4.22585 -22.59197,-12.70893 -28.67237,-23.93163 -3.63167,-6.71766 -6.81068,-13.71309 -11.29043,-19.93569 5.62664,1.58042 11.14882,4.12177 15.48647,8.10819 3.68761,4.26028 3.30635,10.32782 5.32614,15.34971 -0.35362,-5.81986 -1.12816,-11.6078 -2.80719,-17.2004 8.45597,1.04491 16.99306,2.22338 24.93116,5.51504 6.59496,5.92096 11.01206,13.74363 16.69601,20.47126 -2.96666,-6.70918 -5.90513,-13.64691 -10.77774,-19.21923 -15.97519,-9.43245 -36.81842,-10.03857 -50.33689,-23.64083 -5.74731,-8.50639 -10.49692,-17.8019 -18.37483,-24.64028 9.49454,-0.21345 19.32792,-0.18714 28.38837,3.07943 2.24737,1.34312 4.33508,2.87142 6.30919,4.53054 7.81834,6.57072 13.85646,15.19337 20.9896,22.49274 -4.17561,-8.17023 -10.94617,-14.5592 -17.44498,-20.86613 -4.14409,-3.83011 -8.33587,-8.00325 -13.99044,-9.49021 -15.99834,-4.68895 -33.57491,-1.00285 -49.07282,-7.89703 -11.23631,-3.73404 -18.61237,-13.36298 -26.60337,-21.46759 6.55124,-0.584 13.23441,-0.57366 19.58446,-2.522829 m 72.88172,91.642649 c -0.62435,1.12598 -0.28609,1.63594 1.00097,1.50904 0.61745,-1.1364 0.28785,-1.6446 -1.00097,-1.50904 m 57.8833,77.74081 c 1.3131,3.57241 2.81343,7.06558 4.33102,10.56226 0.37155,-4.10536 -0.88518,-8.08982 -4.33102,-10.56226"
       id="path33341"
       style="mix-blend-mode:normal;fill:#ffffff;fill-opacity:1;stroke-width:1.08318;stroke:#000000;stroke-opacity:1"
       sodipodi:nodetypes="ccccccccccccccccccccccccccccccccccccccccccccccccccccccc" />
  </g>
  <g
     id="g20978"
     transform="matrix(0.86552123,0.17519772,-0.17519772,0.86552123,78.6146,-20.872076)"
     style="mix-blend-mode:normal;stroke-width:1.1324">
    <path
       fill="#090909"
       opacity="1"
       d="m 580.98,285.97 c 1.73,7.45 3.86,14.8 5.88,22.18 3.48,11.23 -9.28,19.98 -7.24,31.23 0.75,4.38 2.1,8.61 3.29,12.88 -1.27,-1.07 -2.53,-2.16 -3.78,-3.25 1.31,3.88 2.6,7.81 2.69,11.96 -3.15,9.64 -10.65,17.17 -13.95,26.77 -1.94,7.41 -1.83,15.13 -2.49,22.72 -1.39,-2.19 -2.7,-4.43 -4.01,-6.65 -1.97,9.77 -3.5,19.67 -6.43,29.21 -3.68,8.22 -12.67,11.91 -18.51,18.24 -6.2,8.68 -9.48,18.92 -13.63,28.62 -4.2,9.25 -14.93,11.23 -22.85,16.12 -10.39,5.36 -13.97,17.27 -21.58,25.35 -6.25,4.24 -14.38,4.22 -21.33,6.75 -12.23,2.58 -16.01,17.79 -28.05,20.81 -8.61,2.03 -17.61,2.29 -26.05,5.11 -3.8,1.75 -6.96,4.58 -10.47,6.82 0.45,-1.95 0.95,-3.9 1.44,-5.83 -7.2,3.73 -14.28,7.75 -21.69,11.05 -8.32,1.4 -16.85,0.68 -25.25,0.98 -8.75,-1.08 -16.08,4.34 -23.87,7.28 1.71,-2.39 3.45,-4.74 5.16,-7.13 -6.96,2 -13.72,4.93 -20.91,6.03 -8.9,0.17 -16.24,-5.48 -24.44,-8.01 -4.61,-1.93 -9.49,-0.16 -13.92,1.28 0.25,-0.72 0.5,-1.43 0.76,-2.14 -5.07,0.38 -10.41,2.04 -15.38,0.3 -10.3,-3.43 -18.4,-11.42 -28.69,-14.81 -5.99,0.03 -11.99,1.28 -17.98,0.27 -8.83,-4.39 -13.37,-13.92 -21.44,-19.28 -5.76,-2.58 -12.57,-1.97 -18.16,-4.98 L 179.05,524 c 1.85,1.12 4.07,2.14 6.24,1.31 12.98,-4.26 25.52,-10.02 38.87,-13.04 12.07,-2.49 22.75,4.2 32.59,10.12 0.04,0.58 0.13,1.75 0.17,2.34 -8.56,3.59 -16.53,8.46 -25.05,12.09 -14.18,4.45 -26.63,-6.27 -40.57,-6.66 5.63,5.1 12.97,7.58 19.68,10.88 4.89,2.11 9.89,5.06 15.47,4.25 7.22,-3.43 12.94,-9.54 20.47,-12.42 10.93,-4.74 22.94,-9.17 34.99,-5.79 5.99,2.13 11.36,5.66 16.93,8.67 -5.88,6.52 -12.71,12.17 -20.01,17.04 -3.75,2.49 -8.48,1.71 -12.69,1.15 -11.1,-1.96 -22.25,-3.78 -33.49,-4.6 11.53,4.65 23.55,7.99 35.75,10.34 1.77,-0.92 4.79,1.89 6.68,0.34 13.58,-9.37 25.84,-22.68 43.09,-24.73 9.08,-2.44 18.65,0.2 26.22,5.41 -4.94,6.19 -8.72,13.86 -15.32,18.36 -14.4,2.1 -29.45,-1.89 -43.53,3.25 14.66,1.59 29.56,3.21 44.26,1.42 7.92,-6.6 12.96,-16.29 21.24,-22.66 7.41,-5.98 15.92,-11.29 25.56,-12.43 7.59,-0.92 15.35,-0.87 22.93,0.25 -0.83,6.29 -1.56,13.48 -6.7,17.94 -6.16,6.04 -15.06,6.81 -22.89,9.24 -5.58,1.44 -10.94,3.61 -16.25,5.82 13.18,-1.54 26.43,-3.92 38.94,-8.41 6.03,-1.7 5.63,-9.15 7.94,-13.76 3.96,-16.54 14.76,-30.87 28.41,-40.73 7.96,-5.81 15.96,-12.02 25.41,-15.23 -0.61,5.34 -4.08,9.79 -6.03,14.7 -4.98,1.55 -10.05,2.92 -14.71,5.32 6.37,-0.95 12.6,-2.56 18.92,-3.8 -2.48,9.86 -3.74,21.49 -12.37,28.19 -7.79,6.14 -16.58,10.82 -24.49,16.79 11.37,-3.64 21.82,-9.54 32.36,-15.04 2.86,-10.49 4.74,-21.19 7.14,-31.78 1.79,-7.88 6.05,-15.45 13.12,-19.73 7.3,-4.56 15.17,-8.12 22.86,-11.96 -0.42,7.66 0.7,15.99 -2.65,23.14 -10.16,13.45 -23.77,23.76 -34.66,36.58 11.24,-6.53 21.92,-14.07 31.73,-22.6 5.5,-3.92 4.36,-11.44 5.66,-17.24 0.77,-11.32 2.73,-22.5 5.76,-33.42 -1.62,2.54 -3.2,5.12 -4.95,7.58 3.73,-19.53 11.75,-39.47 27.66,-52.21 0.01,5.86 -0.47,11.68 -0.79,17.53 -8.91,7.32 -17.87,15.21 -22.25,26.19 7.21,-10.8 16.68,-19.66 27.01,-27.43 1.32,9.68 4.72,20.44 -0.6,29.48 -6.32,14.8 -18.58,25.78 -26.94,39.32 13.85,-11.14 24.9,-25.22 35.35,-39.48 -2.1,-15.69 -7.15,-30.93 -8.2,-46.75 2.67,-15.64 8.47,-30.81 16.44,-44.52 2.17,5.81 3.66,11.85 5.61,17.74 -10.45,7.68 -18.11,19.07 -20.67,31.82 5.51,-12.17 12.64,-24 23.73,-31.84 6.42,7.94 6.79,19.03 4.31,28.58 -2.83,10.63 -8.12,20.32 -12.66,30.27 6.71,-9.08 12.24,-18.98 16.89,-29.25 1.19,-3.59 3.75,-7.35 2.37,-11.25 -4.65,-13.88 -10.42,-27.52 -13.05,-41.98 0.03,4.92 0.32,9.88 0.17,14.81 -7.42,-17.74 -5.81,-37.98 1.68,-55.4 0.75,-0.05 2.24,-0.15 2.99,-0.2 2.03,4.51 6.58,8.82 4.81,14.21 -3.28,5.2 -7.27,10.07 -9.15,16.02 4.31,-6.27 8.76,-12.49 14.25,-17.81 12.37,8.48 9.16,25.1 10.39,38.02 2,-7.54 3.45,-15.21 4.56,-22.92 -10.39,-12.72 -20.52,-25.85 -27.56,-40.76 -5.74,-15.04 -8.73,-31.17 -8.32,-47.29 4.38,4.06 8.53,8.39 13.31,12.02 -4.36,14.14 -5.37,30.05 0.37,43.95 -1.84,-14.91 -5.26,-31.15 2.5,-45.01 5.59,4.62 12.45,8.72 15.77,15.38 1.6,14.59 2.18,29.36 5.64,43.7 1.31,-14.93 3.09,-30.58 -1.14,-45.11 z m -166.74,227.4 c 4.39,-2.34 8.74,-4.76 12.91,-7.48 -4.56,2.01 -9.05,4.3 -12.91,7.48 z"
       id="path20820"
       style="fill:#ff0000;fill-opacity:1;stroke-width:1.2266"
       sodipodi:nodetypes="cccccccccccccccccccccccccccccccccccccccccccccccccccccccccccccccccccccccccccccccccccccccccccccccccccccccccccccccccccc" />
    <path
       fill="#090909"
       opacity="1"
       d="m 528.64,247.47 c 3.38,6.34 8.63,12.29 8.86,19.78 0.52,6.74 0.69,13.51 0.89,20.27 -3.39,-6.86 -6.55,-13.84 -9.31,-20.97 -0.76,-6.33 -0.43,-12.72 -0.44,-19.08 z"
       id="path20892"
       style="fill:#ff0000;fill-opacity:1;stroke-width:1.2266" />
    <path
       fill="#090909"
       opacity="1"
       d="m 522.92,252.36 c 3.23,9.41 3.97,19.76 1.98,29.51 -1.38,5.44 -3.69,11.27 -8.69,14.35 -5.22,2.56 -10.82,-0.22 -14.2,-4.25 -6.04,-7.23 -10.4,-15.99 -12.23,-25.25 6.94,4.77 15.42,14.15 24.62,9.69 7.93,-5.33 7.28,-15.78 8.52,-24.05 z"
       id="path20896"
       style="fill:#ff0000;fill-opacity:1;stroke-width:1.2266" />
    <path
       fill="#090909"
       opacity="1"
       d="m 522.26,303.25 c 3.63,-5.06 4.85,-11.28 7.06,-17 1.14,10.66 1.21,23.19 -6.32,31.75 -2.95,4.24 -8.61,8.37 -13.94,6.01 -6.27,-2.47 -8.91,-9.15 -11.16,-14.97 -1.99,-6.28 -3.69,-12.7 -4.31,-19.27 3.52,4.67 6.48,9.82 10.78,13.86 5.16,3.64 13.1,4.15 17.89,-0.38 z"
       id="path20902"
       style="fill:#ff0000;fill-opacity:1;stroke-width:1.2266" />
    <path
       fill="#090909"
       opacity="1"
       d="m 538.59,299.47 c 1.7,5.29 4.41,10.57 4.45,16.2 -2.27,6.2 -4.78,12.32 -6.16,18.82 -1.02,-7.48 -3.99,-14.92 -2.56,-22.56 1.07,-4.26 2.8,-8.33 4.27,-12.46 z"
       id="path20904"
       style="fill:#ff0000;fill-opacity:1;stroke-width:1.2266" />
    <path
       fill="#090909"
       opacity="1"
       d="m 499.01,345.98 c -5.37,-8.8 -3.96,-19.5 -3.3,-29.28 2.27,7.06 3.98,17.12 12.23,19.51 2.67,1.15 5.79,0.58 8.05,-1.21 6.03,-4.08 7.48,-11.49 10.77,-17.5 -0.6,10.86 -2.6,22.62 -10.49,30.77 -4.44,5.66 -14.13,3.84 -17.26,-2.29 z"
       id="path20908"
       style="fill:#ff0000;fill-opacity:1;stroke-width:1.2266" />
    <path
       fill="#090909"
       opacity="1"
       d="m 490.64,371.35 c -2.03,-8.94 -0.09,-18.11 2.66,-26.68 1.83,6.16 3.2,14.58 10.38,16.68 8.57,2.51 13.47,-6.49 18.44,-11.76 -2.46,9.19 -6.39,18.48 -13.39,25.12 -2.77,1.89 -5.95,4.08 -9.45,3.91 -3.68,-1.01 -7.04,-3.8 -8.64,-7.27 z"
       id="path20912"
       style="fill:#ff0000;fill-opacity:1;stroke-width:1.2266" />
    <path
       fill="#090909"
       opacity="1"
       d="m 524.62,359.3 c 2.28,-4.18 5.8,-7.49 9.18,-10.78 0.62,4.03 1.15,8.09 1.7,12.14 -6.21,6.36 -10.69,14.07 -15.43,21.52 1.46,-7.64 2.69,-15.33 4.55,-22.88 z"
       id="path20914"
       style="fill:#ff0000;fill-opacity:1;stroke-width:1.2266" />
    <path
       fill="#090909"
       opacity="1"
       d="m 481.93,407.79 c -6.05,-13.08 -0.56,-27.57 4.27,-40.07 1.11,5.21 0.06,11.36 3.06,16.06 3.03,1.86 7,5.52 10.76,3.28 3.91,-2.42 6.88,-6.05 10.25,-9.12 -5.71,12.7 -14.32,25.62 -28.34,29.85 z"
       id="path20916"
       style="fill:#ff0000;fill-opacity:1;stroke-width:1.2266" />
    <path
       fill="#090909"
       opacity="1"
       d="m 504.24,401 c 3.3,-3.73 6.95,-7.18 10.59,-10.59 -0.03,5.77 0.57,11.6 -0.06,17.37 -5.62,5.08 -11.97,9.43 -16.9,15.25 2.41,-7.26 4.04,-14.77 6.37,-22.03 z"
       id="path20924"
       style="fill:#ff0000;fill-opacity:1;stroke-width:1.2266" />
    <path
       fill="#090909"
       opacity="1"
       d="m 462.99,412 c 3.03,-6.07 6.03,-12.24 10.2,-17.63 -0.13,6.14 -3.56,14.49 2.74,18.73 6.42,4.31 13.11,-2.08 19.15,-4.34 -6.81,7.6 -13.62,15.52 -22.36,20.97 -3.52,2.03 -9.34,3.73 -11.82,-0.66 -2.1,-5.55 -0.57,-11.96 2.09,-17.07 z"
       id="path20926"
       style="fill:#ff0000;fill-opacity:1;stroke-width:1.2266" />
    <path
       fill="#090909"
       opacity="1"
       d="m 436.2,452.62 c 0.2,-14.3 10.75,-24.88 19.69,-34.78 -0.57,6.54 -5.22,16.05 2.42,19.88 7.84,3.41 14.56,-3.26 21.13,-6.59 -7.64,10.26 -19.07,17.37 -31.14,21.25 -3.88,1.84 -8.07,0.46 -12.1,0.24 z"
       id="path20930"
       style="fill:#ff0000;fill-opacity:1;stroke-width:1.2266" />
    <path
       fill="#090909"
       opacity="1"
       d="m 473.1,444.02 c 4.27,-3.58 9.26,-6.19 13.96,-9.15 -1.85,5.62 -3.75,11.21 -5.37,16.91 -5.34,2.99 -10.52,6.25 -15.73,9.45 2.35,-5.73 3.97,-11.86 7.14,-17.21 z"
       id="path20936"
       style="fill:#ff0000;fill-opacity:1;stroke-width:1.2266" />
    <path
       fill="#090909"
       opacity="1"
       d="m 412.34,474.45 c -2.73,-15.57 11.2,-27.3 21.56,-36.66 -1.74,6.58 -7.45,16.46 0.74,20.58 6.33,0.19 12.61,-2.42 18.94,-3.35 -10.73,11.19 -25.19,20.1 -41.24,19.43 z"
       id="path20938"
       style="fill:#ff0000;fill-opacity:1;stroke-width:1.2266" />
    <path
       fill="#090909"
       opacity="1"
       d="m 476.67,461.67 c 5.25,-5 9.91,-10.89 16.36,-14.44 -1.55,6.05 -3.14,12.24 -6.22,17.71 -5.94,6.07 -14.4,8.67 -21.12,13.73 -4.08,2.65 -6.68,6.85 -9.85,10.41 4.52,-10.73 12.61,-19.37 20.83,-27.41 z"
       id="path20940"
       style="fill:#ff0000;fill-opacity:1;stroke-width:1.2266" />
    <path
       fill="#090909"
       opacity="1"
       d="m 216.13331,454.25554 c 8.55037,3.43126 16.62498,8.0477 23.53669,14.17446 -6.84,-1.01 -17.01,-4.9 -21.3,2.73 1.33,6.75 7.29,11.37 10.8,17.04 -9.17426,-4.97089 -18.9145,-10.07041 -26.67047,-17.20662 z"
       id="path20942"
       style="fill:#ff0000;fill-opacity:1;stroke-width:1.2266"
       sodipodi:nodetypes="cccccc" />
    <path
       fill="#090909"
       opacity="1"
       d="m 380.32,475.29 c 7.97,-8.29 18.19,-14.03 28.55,-18.81 -3.82,6.19 -8.17,12.32 -8.44,19.91 8.36,1.48 16.89,1.25 25.34,1.13 -9.45,9.18 -22.76,13.92 -35.8,14.31 -4.19,-0.4 -9.32,-1.21 -11.68,-5.14 -2.31,-3.62 -0.77,-8.52 2.03,-11.4 z"
       id="path20948"
       style="fill:#ff0000;fill-opacity:1;stroke-width:1.2266" />
    <path
       fill="#090909"
       opacity="1"
       d="m 434.64,473.75 c 6.56,-0.78 13.2,-1.8 19.21,-4.68 -3.4,4.25 -6.42,8.78 -9.4,13.35 -1.91,2.82 -4.04,6.07 -8.04,5.96 -4.56,1.22 -9.08,2.54 -13.66,3.66 4.48,-5.75 8.55,-11.81 11.89,-18.29 z"
       id="path20950"
       style="fill:#ff0000;fill-opacity:1;stroke-width:1.2266" />
    <path
       fill="#090909"
       opacity="1"
       d="m 230.38,472.39 c 14.29,-1.31 29.56,-0.26 42.23,7.13 -5.7,1.26 -11.52,1.99 -17.22,3.27 -0.27,2.31 -1.79,4.98 -0.34,7.13 3.86,5.25 9.06,9.3 14.02,13.46 -11.24,-3.26 -21.8,-8.65 -31.84,-14.59 -4.36,-3.05 -9.67,-6.27 -11.01,-11.83 0.24,-2.22 1.93,-4.18 4.16,-4.57 z"
       id="path20952"
       style="fill:#ff0000;fill-opacity:1;stroke-width:1.2266" />
    <path
       fill="#090909"
       opacity="1"
       d="m 347.29,487.27 c 7.42,-8.62 18.82,-11.98 29.56,-14.15 -3.09,4.25 -6.56,8.27 -8.81,13.07 -0.04,3.75 4.07,4.97 7.04,5.67 6.67,1.26 13.47,1.75 20.16,2.98 -11.32,2.81 -22.31,7.82 -34.24,7.24 -5.14,-0.3 -11.16,0.82 -15.59,-2.51 -3.2,-3.65 -0.95,-9.15 1.88,-12.3 z"
       id="path20954"
       style="fill:#ff0000;fill-opacity:1;stroke-width:1.2266" />
    <path
       fill="#090909"
       opacity="1"
       d="m 306.22,497.2 c 12.54,-9.84 28.53,-13.79 44.14,-15.09 -6.15,4.77 -15.3,7.42 -17.33,15.82 9.31,4.5 19.58,5.91 29.47,8.53 -14.67,3.38 -30.05,3.45 -44.85,0.93 -4.56,-0.8 -8.99,-2.7 -12.59,-5.59 -0.12,-1.59 -0.48,-3.67 1.16,-4.6 z"
       id="path20956"
       style="fill:#ff0000;fill-opacity:1;stroke-width:1.2266" />
    <path
       fill="#090909"
       opacity="1"
       d="m 261.96,490.8 c 14.45,-10.37 33.83,-8.64 50.27,-4.73 -7.19,2.03 -15.16,4.03 -19.07,10.99 4.73,6 11.53,9.36 18.16,12.78 -17.61,-1.62 -37.36,-4.54 -49.36,-19.04 z"
       id="path20958"
       style="fill:#ff0000;fill-opacity:1;stroke-width:1.2266" />
    <path
       fill="#090909"
       opacity="1"
       d="m 212.75,486.78 c 4.58,0.66 9.13,1.59 13.55,3.01 3.15,2.71 5.6,6.18 8.28,9.37 -9.24,0.35 -15.73,-6.52 -21.83,-12.38 z"
       id="path20960"
       style="fill:#ff0000;fill-opacity:1;stroke-width:1.2266" />
    <path
       fill="#090909"
       opacity="1"
       d="m 399.49,495.62 c 5.86,-0.48 11.71,-1.24 17.54,-2.07 -4.92,5.14 -8.88,11.32 -14.52,15.68 -6.91,1.07 -14,0.7 -20.97,1.37 6.04,-4.91 12.75,-9.1 17.95,-14.98 z"
       id="path20962"
       style="fill:#ff0000;fill-opacity:1;stroke-width:1.2266" />
    <path
       fill="#090909"
       opacity="1"
       d="m 247.52,502.11 c 5.49,0.34 10.98,1 16.36,2.21 3.42,1.4 6,4.25 8.79,6.59 -9.71,2.05 -17.84,-3.38 -25.15,-8.8 z"
       id="path20964"
       style="fill:#ff0000;fill-opacity:1;stroke-width:1.2266" />
    <path
       fill="#090909"
       opacity="1"
       d="m 222.69,510.21 c 8.59,-1.51 17.51,-2.95 26.16,-0.98 8.49,1.57 16.24,5.58 24.09,8.99 -0.1,0.62 -0.29,1.86 -0.39,2.48 -4.69,0.15 -9.56,1.27 -14.17,-0.13 -6.8,-2 -12.27,-7.13 -19.27,-8.59 -5.43,-0.97 -10.96,-1.2 -16.42,-1.77 z"
       id="path20966"
       style="fill:#ff0000;fill-opacity:1;stroke-width:1.2266" />
    <path
       fill="#090909"
       opacity="1"
       d="m 338.56,518.55 c 5.74,-2.72 11.43,-5.64 17.41,-7.75 6.44,0.11 12.86,0.91 19.32,0.79 -6.88,3.82 -13.45,8.29 -20.39,11.89 -5.64,-0.78 -10.98,-3.05 -16.34,-4.93 z"
       id="path20968"
       style="fill:#ff0000;fill-opacity:1;stroke-width:1.2266" />
    <path
       fill="#090909"
       opacity="1"
       d="m 295.36,514.64 c 6.16,-0.72 13.08,-5.02 18.83,-1.04 4.26,2.32 8.48,4.75 12.49,7.49 -5.86,0.56 -11.63,2.27 -17.54,2.24 -5.23,-1.63 -9.4,-5.54 -13.78,-8.69 z"
       id="path20970"
       style="fill:#ff0000;fill-opacity:1;stroke-width:1.2266" />
    <path
       fill="#090909"
       opacity="1"
       d="m 364.56,525.52 c 14.05,-7.25 29.69,-10.43 45.08,-13.39 -3.35,4.7 -6.17,10.13 -10.63,13.84 -8.02,1.54 -16.39,0.09 -24.47,1.49 -8,0.71 -14.84,5.12 -21.85,8.57 3.41,-4.05 7.23,-7.9 11.87,-10.51 z"
       id="path20972"
       style="fill:#ff0000;fill-opacity:1;stroke-width:1.2266" />
    <path
       fill="#090909"
       opacity="1"
       d="m 263.7,524.39 c 8.22,-1.93 16.62,-3.58 25.13,-3.03 8.01,0.48 15.5,3.54 22.88,6.42 -3.74,2.03 -7.56,4.22 -11.83,4.83 -3.82,-0.19 -7.11,-2.6 -10.58,-3.92 -7.88,-3.97 -16.93,-4.62 -25.6,-4.3 z"
       id="path20974"
       style="fill:#ff0000;fill-opacity:1;stroke-width:1.2266" />
    <path
       fill="#090909"
       opacity="1"
       d="m 303.28,536.55 c 15.29,-10.37 35.64,-12.15 53.33,-8.47 -4.41,2.55 -8.37,6.78 -13.67,7.37 -6.32,-0.73 -12.34,-3.45 -18.8,-3.19 -7.14,0.41 -13.91,2.85 -20.86,4.29 z"
       id="path20976"
       style="fill:#ff0000;fill-opacity:1;stroke-width:1.2266" />
    <path
       fill="#090909"
       opacity="1"
       d="m 193.26,488.68 7.04,0.76 c 6.56,5.71 11.58,12.91 13.8,21.35 -6.93,2.66 -13.85,5.48 -21.13,7.04 -4.43863,-0.57519 -8.24214,-2.37739 -11.79825,-4.67236 z"
       id="path36299"
       style="fill:#ff0000;fill-opacity:1;stroke-width:1.2266"
       sodipodi:nodetypes="cccccc" />
    <path
       fill="#090909"
       opacity="1"
       d="m 193.26,488.68 c -1.52,-0.54 -3.04,-1.07 -4.55,-1.6 16.54,-3.28 30.94,7.89 41.78,18.96 -5.34,0.91 -10.71,1.59 -16.1,2.12 -2.17,-7.75 -6.4,-15.3 -14.09,-18.72 z"
       id="path37875"
       style="fill:#ff0000;fill-opacity:1;stroke-width:1.2266"
       sodipodi:nodetypes="cccccc" />
  </g>
  <rect
     style="fill:#000000;fill-opacity:0;stroke:none;stroke-width:1.41732;stroke-opacity:1"
     id="rect16395"
     width="600"
     height="600"
     x="0"
     y="0" />
  <g
     id="g20812"
     transform="matrix(0.86552123,0.17519772,-0.17519772,0.86552123,78.59,-20.891788)"
     style="mix-blend-mode:normal;stroke-width:1.1324;fill:#0000ff;fill-opacity:1"
     clip-path="none">
    <path
       fill="#090909"
       opacity="1"
       d="m 132.41215,183.58161 c -1.86088,3.25952 -4.00038,6.35459 -6.46215,9.21839 -0.89113,-4.38762 -0.27835,-8.90018 1.41339,-12.98996 z"
       id="path20704"
       style="fill:#0000ff;fill-opacity:1;stroke-width:1.2266"
       sodipodi:nodetypes="cccc" />
    <path
       fill="#090909"
       opacity="1"
       d="m 130.6,225.63 c 5.43,-8.04 9.36,-17.24 16.5,-24.02 -6.64,14.42 -9.52,30.13 -12.9,45.53 -1,5.61 -1.07,11.34 -1.45,17.03 -0.55,-0.2 -1.65,-0.58 -2.2,-0.78 -1,-6.56 -1.99,-13.12 -2.98,-19.67 -4.65,6.86 -8.75,14.07 -13.52,20.86 2.83,-13.95 8.84,-27.05 16.55,-38.95 z"
       id="path20712"
       style="fill:#0000ff;fill-opacity:1;stroke-width:1.2266" />
    <path
       fill="#090909"
       opacity="1"
       d="m 97.82,284.27 c 7.25,-23.76 15.25,-48.08 31.44,-67.47 -2.7,8.51 -8.13,15.8 -11.42,24.07 -5.25,13.63 -10.38,27.77 -10.27,42.59 0.93,5.97 -2.75,10.91 -5.21,15.96 -1.66,-4.97 -4.58,-9.84 -4.54,-15.15 z"
       id="path20720"
       style="fill:#0000ff;fill-opacity:1;stroke-width:1.2266" />
    <path
       fill="#090909"
       opacity="1"
       d="m 136.44,269.11 c -1.32,-13.02 -0.12,-26.38 4.8,-38.56 0.03,8.11 -0.2,16.23 0.18,24.35 4.95,-5.87 8.03,-12.93 11.3,-19.79 -3.77,11.8 -6.37,25.58 -16.28,34 z"
       id="path20724"
       style="fill:#0000ff;fill-opacity:1;stroke-width:1.2266" />
    <path
       fill="#090909"
       opacity="1"
       d="m 111,326.96 c -3.21,-26.96 1.69,-55.19 15.56,-78.68 -0.92,24.01 -2.22,48.09 0.15,72.07 -3.1,-6.21 -5.81,-12.67 -10.11,-18.19 -2.31,8.09 -3.51,16.4 -3.86,24.8 -0.43,0 -1.31,0 -1.74,0 z"
       id="path20728"
       style="fill:#0000ff;fill-opacity:1;stroke-width:1.2266" />
    <path
       fill="#090909"
       opacity="1"
       d="m 131.97,276.68 c 1.94,1.17 3.85,2.41 5.75,3.66 0.87,9.69 1.64,19.41 1.73,29.15 -3.16,-10.77 -5.42,-21.78 -7.48,-32.81 z"
       id="path20732"
       style="fill:#0000ff;fill-opacity:1;stroke-width:1.2266" />
    <path
       fill="#090909"
       opacity="1"
       d="m 128.48,278.42 c 3.02,7.48 3.77,15.63 6,23.35 4.08,11.42 1.03,23.74 1.72,35.59 -4.54,-19.28 -7.71,-39.08 -7.72,-58.94 z"
       id="path20734"
       style="fill:#0000ff;fill-opacity:1;stroke-width:1.2266" />
    <path
       fill="#090909"
       opacity="1"
       d="m 130.7,385.33 c -15.05,-21.15 -15.6,-48.8 -13.88,-73.63 5.41,12.27 11.9,24.02 17.15,36.36 4.66,10.73 11.38,20.65 14.4,32.06 -6.04,-6.4 -10.43,-15.24 -18.94,-18.7 -0.58,8.01 0.18,15.98 1.27,23.91 z"
       id="path20740"
       style="fill:#0000ff;fill-opacity:1;stroke-width:1.2266" />
    <path
       fill="#090909"
       opacity="1"
       d="m 103.73,321.54 c 2.51,4.34 5.57,8.48 7.21,13.26 0.77,5.42 -0.37,10.86 -1.02,16.24 -0.57,-0.09 -1.72,-0.26 -2.29,-0.34 -2,-6.09 -5.04,-11.78 -6.95,-17.9 0.11,-3.92 2,-7.53 3.05,-11.26 z"
       id="path20744"
       style="fill:#0000ff;fill-opacity:1;stroke-width:1.2266" />
    <path
       fill="#090909"
       opacity="1"
       d="m 134.95,373.55 c 16.51,11.73 29.25,28.09 39.47,45.41 -5.47,-2.81 -10.88,-5.83 -16.77,-7.72 -0.09,6.23 1.13,12.33 2.63,18.35 -12.92,-16.05 -23.96,-35.03 -25.33,-56.04 z"
       id="path20752"
       style="fill:#0000ff;fill-opacity:1;stroke-width:1.2266" />
    <path
       fill="#090909"
       opacity="1"
       d="m 97.77,377.01 c 6.11,4.09 12.33,8.42 16.83,14.34 5.48,8.53 9.65,17.88 12.95,27.46 -5.35,-0.2 -11.23,-2.41 -14.03,-7.19 -2.25,-6.57 -2.16,-13.83 -4.96,-20.24 -2.83,-5.33 -6.92,-9.8 -10.79,-14.37 z"
       id="path20754"
       style="fill:#0000ff;fill-opacity:1;stroke-width:1.2266" />
    <path
       fill="#090909"
       opacity="1"
       d="m 117.39,379.04 c 4.85,4.99 9.57,10.14 15.09,14.41 0.71,5.3 1.53,10.61 2.38,15.9 -4.96,-4.72 -10.15,-9.25 -14.54,-14.5 -1.64,-5.07 -2.33,-10.49 -2.93,-15.81 z"
       id="path20756"
       style="fill:#0000ff;fill-opacity:1;stroke-width:1.2266" />
    <path
       fill="#090909"
       opacity="1"
       d="m 115.63,417.94 c 5.42,2.47 10.61,5.45 15.37,9.04 9.2,7.41 14.81,18.13 23.19,26.34 -3.37,0.36 -7.1,2.84 -10.17,0.68 -8.36,-6.83 -9.49,-18.58 -16.6,-26.38 -3.75,-3.45 -8.05,-6.23 -11.79,-9.68 z"
       id="path20762"
       style="fill:#0000ff;fill-opacity:1;stroke-width:1.2266" />
    <path
       fill="#090909"
       opacity="1"
       d="m 163.63,420.34 c 16.62,0.95 29.95,12.97 39.7,25.5 -5.32,-0.9 -10.67,-1.72 -16.02,-2.37 -0.09,3.53 -1.72,7.16 -0.38,10.59 0.99,2.92 2.46,5.65 3.82,8.42 -12.6,-10.97 -25.12,-24.85 -27.12,-42.14 z"
       id="path20766"
       style="fill:#0000ff;fill-opacity:1;stroke-width:1.2266" />
    <path
       fill="#090909"
       opacity="1"
       d="m 142.89,422.92 c 5.16,3.2 10.49,6.15 15.44,9.68 2.47,5.73 4.41,11.73 6.65,17.59 -5.32,-4.6 -11.63,-7.78 -17.26,-11.89 -2.28,-4.83 -3.24,-10.26 -4.83,-15.38 z"
       id="path20768"
       style="fill:#0000ff;fill-opacity:1;stroke-width:1.2266" />
    <path
       fill="#090909"
       opacity="1"
       d="m 193.72,451.71 c 3.07,-2.29 7.32,-1.96 10.92,-1.32 4.45779,1.23711 8.87136,2.7395 13.15249,4.54894 l -12.21631,18.70364 c -4.29542,-3.47123 -8.13865,-7.43143 -11.16618,-12.15258 -1.39,-2.83 -4.11,-7.46 -0.69,-9.78 z"
       id="path20776"
       style="fill:#0000ff;fill-opacity:1;stroke-width:1.2266"
       sodipodi:nodetypes="cccccc" />
    <path
       fill="#090909"
       opacity="1"
       d="m 156.87,456.77 c 15.98,2.86 29.29,14.22 38.11,27.39 -4.83,0.53 -10.88,1.94 -14.37,-2.59 -2.87,-4.29 -5.02,-9.02 -8.12,-13.15 -4.21,-5.1 -10.23,-8.02 -15.62,-11.65 z"
       id="path20778"
       style="fill:#0000ff;fill-opacity:1;stroke-width:1.2266" />
    <path
       fill="#090909"
       opacity="1"
       d="m 174.61,456.92 c 5.39,1.86 10.93,3.67 15.74,6.79 3.65,3.57 6.12,8.16 8.98,12.36 -5.38,-1.7 -10.91,-3.47 -15.43,-6.96 -3.38,-3.84 -6.48,-7.92 -9.29,-12.19 z"
       id="path20780"
       style="fill:#0000ff;fill-opacity:1;stroke-width:1.2266" />
    <path
       fill="#090909"
       opacity="1"
       d="m 168.1,525.85 c -8.52,-5.78 -12.73,-15.8 -20.55,-22.3 -7.62,-3.83 -17.46,-5.64 -22.37,-13.35 -3.19,-8.2 -6.92,-16.24 -11.9,-23.52 -3.04,-3.18 -7.49,-4.49 -10.9,-7.2 -14.64,-13.15 -10.68,-36.99 -26.02,-49.72 0.94,-0.13 1.87,-0.25 2.81,-0.35 -5.72,-11.14 -13.29,-21.38 -17.13,-33.42 -2.33,-7.19 -5.96,-13.91 -10.91,-19.62 3.05,0.99 6.03,2.16 9.02,3.32 -3.1,-5.2 -6.76,-10.17 -8.95,-15.84 -2.79,-10.47 0.77,-21.18 0.54,-31.73 -0.4,-7.16 -4.27,-13.16 -7.82,-19.09 3.39,1.98 6.79,3.96 10.18,5.95 -2.07,-4.84 -5.35,-9.46 -4.96,-14.98 -0.57,-11.47 7.06,-21 8.94,-31.98 2.3,-7.38 0.78,-15.16 -0.24,-22.6 3.05,3.86 5.93,7.86 8.91,11.78 -0.41,-7.63 -1.12,-15.85 2.65,-22.82 4.89,-9.11 9.65,-18.3 14.28,-27.56 4.383975,-10.23528 12.309224,-18.22585 18.99761,-26.97722 L 120.71,173.16 c 1.87,7.51 3.14,15.39 2.51,23.14 -3.51,11.59 -11.39,21.12 -15.9,32.26 -1.02,7.5 -1.04,15.19 -3.23,22.5 -2.45,8.04 -5.78,15.75 -8.83,23.57 -3.55,-3.06 -6.87,-7.34 -5.02,-12.44 3.95,-7.65 10.27,-14.4 11.72,-23.19 1.59,-5.18 1.46,-10.6 1.43,-15.95 0.72,0.64 1.44,1.28 2.16,1.93 -0.49,-4.95 -2.46,-10.79 1.81,-14.7 5.73,-7.27 12.22,-14.35 14.77,-23.49 -5.49,9.89 -13.18,18.17 -20.79,26.45 -2.44,-5.38 -5.73,-10.56 -6.64,-16.47 0.89,-4.09 4.54,-6.96 6.27,-10.7 3.30548,-5.82543 4.66315,-12.32231 5.36681,-18.88373 l -2.20767,-1.81063 C 100.44073,170.69349 96.895582,176.11223 93.63,181.7 c -1.19,2.18 -2.49,4.55 -2.24,7.12 1.7,13.23 10.11,24.71 10.53,38.22 1.52,14.51 -8.86,26.02 -16.07,37.45 -5.36,-4.8 -11.92,-10.42 -10.83,-18.46 1.9,-12.51 8.39,-23.69 10.97,-36.02 1.47,-6.05 2.38,-12.24 2.79,-18.46 -5.31,8.35 -8.74,17.67 -12.42,26.8 -3.45,8.72 -6.44,17.91 -6.85,27.27 6.33,12.31 15.9,22.78 21.55,35.52 -0.42,-2.6 -0.89,-5.18 -1.34,-7.77 5.58,7.12 6.86,16.69 5.87,25.46 -1.87,8.72 -3.58,17.47 -5.39,26.21 -3.14,-2.79 -5.77,-6.22 -7.12,-10.22 0.45,-7.87 5.3,-14.51 6.86,-22.13 -4.75,7.24 -8.91,14.96 -10.79,23.5 -6.08,-4.28 -13.02,-8.44 -15.35,-16.01 -5.39,-16.14 1.12,-33.11 -0.07,-49.62 -4.32,15.18 -7.14,31.13 -5.3,46.92 -0.1,4.73 4.34,7 7.14,9.97 6.64,5.65 12.81,11.81 19.42,17.5 3.64,3.05 8.37,5.15 10.62,9.55 7.5,13.09 7.86,28.53 8.11,43.2 -3.58,-3.39 -9.35,-6.06 -9.37,-11.66 0.2,-10.9 1.83,-22.17 -2.68,-32.47 2.66,13.03 1.38,26.2 0.68,39.33 -4.88,-2.12 -9.75,-4.3 -14.41,-6.89 -3.48,-1.89 -5.13,-5.7 -7.11,-8.92 -5.99,-10.35 -7.5,-22.42 -8.8,-34.11 -0.07,-5.69 -2.61,-10.8 -5.25,-15.66 -0.16,16.08 0.62,32.52 5.86,47.87 1.15,2.93 2.11,6.47 5.2,7.94 12.06,6.56 26.44,10.55 35.07,21.94 7.86,8.43 7.02,20.55 8.36,31.27 -9.99,-2.53 -22.07,-4 -28.14,-13.49 -5.74,-10.99 -6.15,-25.47 -17.16,-33.24 4.83,11.25 9.37,22.62 13.13,34.28 1.26,3.06 2.2,7.13 5.85,8.13 11.47,4.18 24.23,4.73 34.83,11.21 12.25,6.83 13.81,22.18 21.45,32.85 -8.76,-0.29 -18.59,1.68 -26.04,-4.27 -11.23,-8.63 -16.78,-22.82 -28.37,-31.1 5.44,13.48 13.72,25.58 22.21,37.29 13.47,0.04 26.96,-0.47 40.41,0.53 8.9,0.29 17.88,4.63 22.71,12.29 3.77,5.35 6.23,11.48 9.36,17.22 -10.45,0.6 -21.4,2.38 -31.54,-1 -8.83,-4.81 -14.72,-13.32 -22.45,-19.52 -4.48,-2.63 -9.58,-4.04 -14.68,-4.87 6.12,8.57 12.56,17.05 20.39,24.15 3.06,2.84 7.54,3 11.42,3.63 16.19,1.2 32.55,0.72 48.61,-1.75 -1.52,-0.54 -3.04,-1.07 -4.55,-1.6 5.79328,-1.14885 11.32402,-0.52495 16.5312,1.24647 l -1.64091,2.96516 c -1.02202,-0.70496 -2.12043,-1.32691 -3.30029,-1.85163 0.72109,0.62766 1.42358,1.27332 2.10578,1.93666 l -16.52751,24.38762 C 177.00786,511.73651 170.34184,503.40456 161.09,499.84 c -6.5,-2.85 -13.39,-4.77 -20.35,-6.05 11.46,11.59 24.4,21.71 38.31,30.21 z M 90.13,288.53 c -2.3,3.44 3.91,0.79 0,0 m 104.88,200.69 c -0.36,1.8 3.33,1.8 2.98,0 -0.56,-1.08 -2.42,-1.08 -2.98,0"
       id="path20654"
       style="fill:#0000ff;fill-opacity:1;stroke-width:1.2266"
       sodipodi:nodetypes="cccccccccccccccccccccccccccccccccccccccccccccccccccccccccccccccccccccccccccccccccccccccccccccccccccccccc" />
  </g>
  <path
     style="mix-blend-mode:normal;fill:#858585;fill-opacity:1;fill-rule:nonzero;stroke:none;stroke-width:1"
     d="m 393.3138,404.60399 c 0,0 4.4618,5.23445 19.0025,19.42528 14.54,14.19156 66.8342,62.22591 66.8342,62.22591 l 7.1049,-7.10489 c 0,0 -48.0344,-52.29423 -62.2259,-66.83422 -14.1909,-14.54072 -19.4253,-19.00251 -19.4253,-19.00251"
     id="path15538" />
  <path
     style="mix-blend-mode:normal;fill:#858585;fill-opacity:1;fill-rule:nonzero;stroke:none;stroke-width:1"
     d="m 118.60731,488.47695 c 0,0 -0.67641,0.69545 -1.62483,1.65245 -1.00223,1.02126 -5.81833,5.28184 -6.521,9.60295 -1.07883,6.64055 -5.69078,9.65468 -9.00011,10.06288 -3.2751,0.4031 -6.4474,-0.29958 -8.70198,-2.55416 -2.2546,-2.25459 -2.95728,-5.4269 -2.55417,-8.70199 0.4082,-3.30933 3.42159,-7.92201 10.06289,-9.0001 4.32109,-0.70268 8.58389,-5.51657 9.6022,-6.52174 0.95571,-0.94973 1.67071,-1.60658 1.67071,-1.60658"
     id="path15222" />
  <path
     style="mix-blend-mode:normal;fill:#858585;fill-opacity:1;fill-rule:nonzero;stroke:none;stroke-width:1"
     d="m 244.91791,432.82017 c 0.47381,0.47381 -1.84491,2.79399 -2.31946,2.31946 -12.95675,-12.95675 -22.13324,-21.21918 -39.3258,-38.41174 -17.19331,-17.19331 -25.45574,-26.3698 -38.41248,-39.32655 -0.47454,-0.47454 1.84565,-2.79327 2.31946,-2.31946 12.95675,12.95675 22.10919,21.19512 39.32655,38.41248 17.21661,17.21661 25.45498,26.36906 38.41173,39.32581 z m 0,0"
     id="path15228" />
  <path
     style="mix-blend-mode:normal;fill:#858585;fill-opacity:1;fill-rule:nonzero;stroke:none;stroke-width:1"
     d="m 481.3927,488.47695 c 0,0 0.6764,0.69545 1.6248,1.65245 1.0022,1.02126 5.8184,5.28184 6.521,9.60295 1.0788,6.64055 5.6908,9.65468 9.0001,10.06288 3.2751,0.4031 6.4474,-0.29958 8.702,-2.55416 2.2546,-2.25459 2.9573,-5.4269 2.5542,-8.70199 -0.4082,-3.30933 -3.4216,-7.92201 -10.0629,-9.0001 -4.3211,-0.70268 -8.5839,-5.51657 -9.6022,-6.52174 -0.9557,-0.94973 -1.6707,-1.60658 -1.6707,-1.60658"
     id="path15536" />
  <path
     style="mix-blend-mode:normal;fill:#858585;fill-opacity:1;fill-rule:nonzero;stroke:none;stroke-width:1"
     d="m 355.0821,432.82017 c -0.4738,0.47381 1.8449,2.79399 2.3194,2.31946 12.9568,-12.95675 22.1333,-21.21918 39.3258,-38.41174 17.1934,-17.19331 25.4558,-26.3698 38.4125,-39.32655 0.4746,-0.47454 -1.8456,-2.79327 -2.3194,-2.31946 -12.9568,12.95675 -22.1092,21.19512 -39.3266,38.41248 -17.2166,17.21661 -25.455,26.36906 -38.4117,39.32581 z m 0,0"
     id="path15542" />
  <path
     style="mix-blend-mode:normal;fill:#858585;fill-opacity:1;fill-rule:nonzero;stroke:none;stroke-width:1"
     d="m 383.0322,399.49345 -21.9561,-13.16522 c -3.0637,-1.83617 -2.8166,-3.31663 -1.2334,-4.81825 l 5.8278,-5.52892 c 1.6853,-1.5949 0.6699,-2.44412 -1.0824,-4.22124 L 90.884,94.320705 c -1.05184,-1.067891 -1.11745,-1.871158 0.22378,-3.21239 1.34198,-1.341979 2.14597,-1.277096 3.21314,-0.224525 L 371.76,364.58786 c 1.7771,1.75243 2.6256,2.76847 4.2213,1.08246 l 5.5289,-5.82779 c 1.5016,-1.58325 2.9821,-1.83035 4.8182,1.23335 l 13.1653,21.95613"
     id="path15540" />
  <path
     style="mix-blend-mode:normal;fill:#858585;fill-opacity:1;fill-rule:nonzero;stroke:none;stroke-width:1"
     d="m 216.96778,399.49345 21.95613,-13.16522 c 3.0637,-1.83617 2.8166,-3.31663 1.23336,-4.81825 l -5.82779,-5.52892 c -1.6853,-1.5949 -0.6699,-2.44412 1.08244,-4.22124 L 509.116,94.320705 c 1.0518,-1.067891 1.1175,-1.871158 -0.2238,-3.21239 -1.342,-1.341979 -2.146,-1.277096 -3.2131,-0.224525 L 228.23997,364.58786 c -1.77705,1.75243 -2.6256,2.76847 -4.22124,1.08246 l -5.52892,-5.82779 c -1.50162,-1.58325 -2.98207,-1.83035 -4.81825,1.23335 l -13.16522,21.95613"
     id="path15226" />
  <path
     style="mix-blend-mode:normal;fill:#858585;fill-opacity:1;fill-rule:nonzero;stroke:none;stroke-width:1"
     d="m 206.68623,404.60399 c 0,0 -4.46179,5.23445 -19.00251,19.42528 -14.53998,14.19156 -66.83422,62.22591 -66.83422,62.22591 l -7.10489,-7.10489 c 0,0 48.03435,-52.29423 62.22591,-66.83422 14.19083,-14.54072 19.42529,-19.00251 19.42529,-19.00251"
     id="path15224" />
</svg>
